<svg
  width="64px"
  height="64px"
  viewBox="0 0 32 32"
  fill="none"
  xmlns="http://www.w3.org/2000/svg"
>
  <path
    fillRule="evenodd"
    clipRule="evenodd"
    d="M22.3336 25.5429C22.2926 25.5494 22.2515 25.5556 22.2105 25.5615C17.9665 26.1731 14.9818 23.1418 12.8552 20.4299C12.6771 20.2301 11.8737 19.6609 11.1295 19.2075C10.8154 19.0162 10.5969 18.6996 10.5287 18.3369C10.4604 17.9742 10.5487 17.5997 10.7717 17.307L12.2672 15.3438C12.7002 14.7754 13.51 14.6686 14.0759 15.1053C14.6417 15.542 14.7495 16.3567 14.3164 16.9252L13.6675 17.777C14.1492 18.1194 14.6259 18.5004 14.8754 18.8189C16.7688 21.2347 18.923 23.4122 21.8397 22.9919C23.4568 22.7606 24.9054 21.9111 25.9219 20.6041C26.9383 19.2972 27.4069 17.6783 27.2411 16.0456C27.061 14.271 26.1918 12.6966 24.7936 11.6125C23.3937 10.5269 21.6621 10.0813 19.918 10.3575C19.2143 10.469 18.553 9.98532 18.4409 9.27723C18.3287 8.56915 18.8082 7.90482 19.5119 7.79336C21.9283 7.41064 24.4268 8.05376 26.3664 9.55776C28.3329 11.0826 29.5551 13.2948 29.8081 15.7867C30.0419 18.0895 29.3839 20.3692 27.9553 22.2061C26.5534 24.0085 24.5609 25.1901 22.3336 25.5429Z"
    fill="#D8B4FE"
  />
  <path
    fillRule="evenodd"
    clipRule="evenodd"
    d="M12.5243 25.0947C9.57604 25.5616 6.60161 24.5238 4.56762 22.3185C2.48853 20.0643 1.71741 16.9714 2.45205 13.8327C2.99662 11.506 4.53546 9.52463 6.67408 8.39687C9.28927 7.01753 11.8048 6.8806 14.1508 7.98983C16.2995 9.0058 17.9672 10.9103 19.1809 12.4582C19.3582 12.6571 20.1618 13.2264 20.9068 13.6807C21.2208 13.872 21.4392 14.1888 21.5073 14.5513C21.5756 14.9139 21.4873 15.2885 21.2645 15.581L19.769 17.5443C19.336 18.1127 18.5263 18.2194 17.9603 17.7827C17.3944 17.3461 17.2867 16.5313 17.7197 15.9628L18.3686 15.111C17.8869 14.7686 17.4103 14.3876 17.1608 14.0693C16.1229 12.745 14.7184 11.1242 13.0569 10.3387C11.4369 9.57269 9.79054 9.68645 7.87568 10.6962C6.39844 11.4753 5.33708 12.8371 4.96377 14.4321C4.42954 16.7147 4.974 18.9465 6.45773 20.5551C7.90492 22.1243 10.0209 22.8627 12.1182 22.5305C12.8218 22.4191 13.4832 22.9027 13.5953 23.6108C13.7075 24.3189 13.228 24.9832 12.5243 25.0947Z"
    fill="#9333EA"
  />
</svg>
